<svg xmlns="http://www.w3.org/2000/svg" viewBox="0 0 100 32" width="100" height="32">
  <path fill="#1A1F71" d="M38.8 5.1c-2.3 0-5.1 1.2-6.6 3l-.6-2.5h-5.2l3.4 21.3h5.7l.1-.9c1.6 1 4.2 1.9 6.2 1.9 6.5 0 10.8-3.2 10.8-8.2 0-3.3-1.8-5.8-5.9-7.8-2.6-1.3-4.1-2.2-4.1-3.6 0-1.3 1.4-2.2 3.4-2.2 1.9 0 3.6.7 4.7 1.4l.6-4.6c-1-1-3.5-1-5.5-1M24.8 5.6H17l-5.6 15.6L10 6.6c-.3-1-1.1-1-2.2-1H0l.1.5c4.1 1 7.7 3.5 10 7.5l5.1 14.3h6l9.1-22.3M81.5 5.6l-5.3 21.3h5.4L87 5.6zM96.7 5.6h-4.3c-1.3 0-2.3.8-2.8 2l-8.1 19.3h5.7l1.1-3.1h7l.6 3.1h5l-4.2-21.3m-7.2 14 3-8.3 1.7 8.3z"/>
  <path fill="#F7B600" d="M12.3 5.6H0l.1.5c4.1 1 7.7 3.5 10 7.5L8.5 6.6c-.2-.6-.7-1-1.3-1"/>
</svg>
